<?xml version="1.0" encoding="utf-8"?>
<!-- Generator: Adobe Illustrator 26.0.2, SVG Export Plug-In . SVG Version: 6.00 Build 0)  -->
<svg version="1.1" id="Layer_1" xmlns="http://www.w3.org/2000/svg" xmlns:xlink="http://www.w3.org/1999/xlink" x="0px" y="0px"
	 viewBox="0 0 843.3 562.7" style="enable-background:new 0 0 843.3 562.7;" xml:space="preserve">
<style type="text/css">
	.st0{display:none;fill:#B3B3B3;}
	.st1{fill:none;stroke:#70657F;stroke-width:6.5;stroke-miterlimit:10;}
	.st2{display:none;}
	.st3{display:inline;fill:none;stroke:#70657F;stroke-width:6.5;stroke-miterlimit:10;}
	.st4{fill:url(#SVGID_1_);stroke:#70657F;stroke-width:6.5;stroke-miterlimit:10;}
	.st5{display:none;fill:#FFFFFF;}
	.st6{fill:#FFFFFF;}
	.st7{font-family:'Nexa-Light';}
	.st8{font-size:79.9934px;}
	.st9{font-family:'Nexa-Thin';}
	.st10{font-size:52.6843px;}
</style>
<rect x="-86.7" y="-250.3" class="st0" width="1033.3" height="1009"/>
<g>
	<g>
		<polygon class="st1" points="408.7,8.9 343.5,66.7 376.1,148.5 457.6,143.7 499.5,96.8 479.7,23.5 		"/>
		<g class="st2">
			<line class="st3" x1="407.4" y1="12.2" x2="457.6" y2="143.7"/>
			<line class="st3" x1="375.5" y1="147.1" x2="407.4" y2="14.8"/>
			<line class="st3" x1="503.2" y1="96.5" x2="343.5" y2="66.7"/>
		</g>
		<g>
			<line class="st1" x1="376.1" y1="148.5" x2="408.6" y2="11.2"/>
			<line class="st1" x1="479.7" y1="23.5" x2="376.2" y2="148.5"/>
			<linearGradient id="SVGID_1_" gradientUnits="userSpaceOnUse" x1="492.626" y1="79.1479" x2="338.1414" y2="83.1682">
				<stop  offset="0" style="stop-color:#6D729E"/>
				<stop  offset="1" style="stop-color:#FFC9DE"/>
			</linearGradient>
			<line class="st4" x1="498.1" y1="95.3" x2="343.5" y2="66.7"/>
		</g>
	</g>
	<g>
		<path class="st5" d="M19.8,227.3c-5.1-5.1-7.9-12-7.9-19.2c0-15.1,12.3-27.4,27.4-27.4h52.9c1.1,0,2.1,0.8,2.1,1.8
			c0,1.3-1,2.1-2.1,2.1H39.3c-12,0-23.5,10-23.5,23.5c0,13,10.8,22.9,23.3,23.6h27.4c11.5,0.3,17.8,6.2,19.7,8.2
			c5.1,5.1,7.9,12.2,7.9,19.2c0,15.1-12.4,27.4-27.6,27.4H13.7c-1.1,0-2-0.8-2-1.8c0-1.3,0.8-2.1,2-2.1h52.9
			c12.2,0,23.6-10,23.6-23.5c0-13-10.9-22.8-23.6-23.6H39.3C28,235.2,21.6,229.3,19.8,227.3z"/>
		<path class="st6" d="M120,233.4c0-29,23.8-52.9,52.9-52.9c29,0,52.9,23.9,52.9,52.9c0,29-23.9,52.9-52.9,52.9
			C143.7,286.3,120,262.4,120,233.4z M123.9,233.4c0,27,21.9,48.9,48.9,48.9c27,0,48.9-21.9,48.9-48.9c0-27-21.9-48.9-48.9-48.9
			C145.9,184.4,123.9,206.4,123.9,233.4z"/>
		<path class="st6" d="M302.4,286.3c-28.9,0-52.3-23.5-52.3-52.3l-0.1-51.6c0-1,0.8-1.8,1.8-1.8c1.3,0,2.1,0.8,2.1,1.8l0.1,51.6
			c0,26.7,21.6,48.4,48.4,48.4h31c1.1,0,2,0.8,2,2.1c0,1-0.8,1.8-2,1.8H302.4z"/>
		<path class="st5" d="M373.1,230.6h0.1c-5.5-5.5-8.5-12.9-8.5-20.5c0-16.3,13.2-29.4,29.4-29.4H443c3.3,0,5.9,2.8,5.9,5.8
			c0,3.3-2.7,5.8-5.9,5.8h-48.8c-9.2,0-17.8,7.6-17.8,17.8c0,9.8,8.2,17.1,18,17.7h25c12.3,0.3,19.1,6.6,21.1,8.9h-0.1
			c5.5,5.5,8.5,12.9,8.5,20.5c0,16.3-13.2,29.4-29.4,29.4h-48.8c-3.3,0-5.9-2.8-5.9-5.8c0-3.3,2.7-5.9,5.9-5.9h48.8
			c9.2,0,17.8-7.5,17.8-17.7c0-9.8-8.2-17.1-18-17.7h-25C381.9,239.2,375.1,232.8,373.1,230.6z"/>
		<path class="st5" d="M588.9,280.5c0,3.3-2.7,5.8-5.9,5.8c-3.1,0-5.8-2.5-5.8-5.8v-41.2H495c0,14,0,27,0,41c0,3.3-2.7,5.9-5.8,5.9
			c-3.5,0-5.9-2.7-5.9-5.9l0.1-47.1c0-29,23.6-52.8,52.8-52.8c29,0,52.8,23.8,52.8,52.8V280.5z M576.8,227.6
			c-2.8-19.8-20.1-35.4-40.6-35.4c-20.8,0-38.1,15.6-40.7,35.4H576.8z"/>
		<path class="st6" d="M720.6,280.5c0,3.3-2.7,5.8-5.9,5.8c-3.1,0-5.8-2.5-5.8-5.8v-47.2c0-22.5-18.5-41-41-41
			c-22.6,0-41.2,18.5-41.2,41v47.1c0,3.3-2.7,5.9-5.8,5.9c-3.5,0-5.9-2.7-5.9-5.9l0.1-47.1c0-29,23.6-52.8,52.8-52.8
			c29,0,52.8,23.8,52.8,52.8V280.5z"/>
		<path class="st6" d="M840.1,233.4c0,29.1-23.6,52.9-52.8,52.9h-34c-3.1,0-5.8-2.7-5.8-5.9c0-3.3,2.7-5.8,5.8-5.8c0,0,33.8,0,34,0
			c22.6,0,41-18.5,41-41.2c0-22.5-18.4-41.2-41-41.2h-34c-3.1,0-5.8-2.5-5.8-5.8c0-3.3,2.7-5.8,5.8-5.8h34
			C816.4,180.6,840.1,204.4,840.1,233.4z"/>
		<path class="st6" d="M15.5,227.3c-5.6-5.1-8.7-12-8.7-19.2c0-15.1,13.6-27.4,30.3-27.4h58.4c1.2,0,2.3,0.8,2.3,1.8
			c0,1.3-1.1,2.1-2.3,2.1H37c-13.3,0-25.9,10-25.9,23.5c0,13,11.9,22.9,25.7,23.6h30.3c12.6,0.3,19.7,6.2,21.7,8.2
			c5.6,5.1,8.7,12.2,8.7,19.2c0,15.1-13.7,27.4-30.4,27.4H8.8c-1.2,0-2.2-0.8-2.2-1.8c0-1.3,0.9-2.1,2.2-2.1h58.4
			c13.4,0,26.1-10,26.1-23.5c0-13-12-22.8-26.1-23.6H37C24.5,235.2,17.5,229.3,15.5,227.3z"/>
		<path class="st6" d="M375.7,230.6h0.2c-6.1-5.5-9.3-12.9-9.3-20.5c0-16.3,14.5-29.4,32.4-29.4h53.7c3.6,0,6.5,2.8,6.5,5.8
			c0,3.3-3,5.8-6.5,5.8h-53.7c-10.1,0-19.6,7.6-19.6,17.8c0,9.8,9,17.1,19.8,17.7h27.5c13.5,0.3,21,6.6,23.2,8.9h-0.2
			c6.1,5.5,9.3,12.9,9.3,20.5c0,16.3-14.5,29.4-32.4,29.4h-53.7c-3.6,0-6.5-2.8-6.5-5.8c0-3.3,3-5.9,6.5-5.9h53.7
			c10.1,0,19.6-7.5,19.6-17.7c0-9.8-9-17.1-19.8-17.7h-27.5C385.3,239.2,377.8,232.8,375.7,230.6z"/>
		<path class="st6" d="M590.9,280.5c0,3.3-2.7,5.8-5.9,5.8c-3.1,0-5.8-2.5-5.8-5.8v-47.2c0-22.5-18.5-41-41-41
			c-22.6,0-41.2,18.5-41.2,41v47.1c0,3.3-2.7,5.9-5.8,5.9c-3.5,0-5.9-2.7-5.9-5.9l0.1-47.1c0-29,23.6-52.8,52.8-52.8
			c29,0,52.8,23.8,52.8,52.8V280.5z"/>
		<path class="st6" d="M548.1,239.2c0,0,5.8,0.2,5.9-5.9c0,0,0.4-5.4-6-5.9h-20.7c0,0-5.2,0.6-5.2,5.7c0,0-0.3,5.1,5.5,6.1
			L548.1,239.2z"/>
	</g>
	<text transform="matrix(1 0 0 1 253.1214 421.7696)" class="st6 st7 st8">welcome</text>
	<text transform="matrix(1 0 0 1 249.3846 482.0847)" class="st6 st9 st10">to your future.</text>
</g>
</svg>
